<svg class="facebook" xmlns="http://www.w3.org/2000/svg" viewBox="0 0 74.62 74.62">
  <title>facebook</title>
  <g class="Page-1">
    <path class="Facebook-2" data-name="Facebook" d="M30,74.08a37.32,37.32,0,1,1,11.1.54V46.94l5.38-.05,5.38-.05L52,43.14c0.11-2,.2-4.32.21-5.05l0.05-1.3H41.06l0.05-4.7c0-4.54.05-4.75,0.41-5.4C42.3,25.29,43.34,25,48.41,25H52l0.1-4.65c0.07-2.54.09-4.61,0.05-4.65a35.88,35.88,0,0,0-6.36-.4,20,20,0,0,0-7.29.9,12.13,12.13,0,0,0-8,8.1c-0.32,1-.36,1.55-0.41,6.75L30,36.79H22.39V46.94h7.71L30,60.75C29.94,67,29.93,72.31,30,74.08Z"/>
  </g>
</svg>
