<?xml version="1.0" encoding="utf-8"?>
<!-- Generator: Adobe Illustrator 19.2.1, SVG Export Plug-In . SVG Version: 6.00 Build 0)  -->
<svg version="1.1" id="logo_Babel" xmlns="http://www.w3.org/2000/svg" xmlns:xlink="http://www.w3.org/1999/xlink" x="0px" y="0px"
	 viewBox="0 0 575.1 77.1" style="enable-background:new 0 0 575.1 77.1;" xml:space="preserve">
<style type="text/css">
	.st0{fill:#E05113;}
</style>
<title>iconos y logo</title>
<g>
	<g>
		<g>
			<path class="st0" d="M307.8,14.4h13.4v4h-8.6v4.9h7.3v4h-7.3v8.2h-4.8L307.8,14.4L307.8,14.4z"/>
			<path class="st0" d="M324.7,14.4h4.8v11.8c0,4.1,1.3,5.6,3.7,5.6s3.8-1.4,3.8-5.6V14.4h4.6v11.3c0,7.1-2.9,10.2-8.4,10.2
				s-8.4-3.1-8.4-10.2L324.7,14.4L324.7,14.4z"/>
			<path class="st0" d="M347,14.4h4.9l5.5,10.5l2.1,4.7h0.1c-0.2-2.2-0.6-5.2-0.6-7.7v-7.5h4.5v21.1h-4.9L353.1,25l-2.1-4.6h-0.1
				c0.2,2.3,0.6,5.2,0.6,7.6v7.5H347V14.4z"/>
			<path class="st0" d="M368.5,14.4h6c6.5,0,10.6,3.2,10.6,10.5s-4.1,10.7-10.4,10.7h-6.3V14.4z M374.2,31.7c3.6,0,6-1.8,6-6.8
				s-2.4-6.6-6-6.6h-0.9v13.4H374.2z"/>
			<path class="st0" d="M398.7,30.5h-6.5l-1.3,5h-4.9l6.6-21.1h5.7l6.6,21.1H400L398.7,30.5z M397.7,26.8l-0.5-2
				c-0.6-2.1-1.1-4.6-1.7-6.8h-0.1c-0.5,2.2-1.1,4.7-1.6,6.8l-0.5,2H397.7L397.7,26.8z"/>
			<path class="st0" d="M416,14c2.4,0,4.6,1,6.3,2.8l-2.6,3c-0.9-1-2.2-1.6-3.6-1.6c-3,0-5.2,2.6-5.2,6.8s2,6.9,5.1,6.9
				c1.5,0,3-0.7,4-1.9l2.6,2.9c-1.7,2-4.1,3.1-6.7,3.1c-5.5,0-10-3.7-10-10.8S410.6,14,416,14z"/>
			<path class="st0" d="M425.8,14.4h4.8v21.1h-4.8V14.4z"/>
			<path class="st0" d="M434.5,24.9c0-6.9,3.9-10.9,9.6-10.9s9.6,4,9.6,10.9s-3.9,11.1-9.6,11.1S434.5,31.8,434.5,24.9z M448.8,24.9
				c0-4.2-1.8-6.7-4.7-6.7s-4.7,2.5-4.7,6.7s1.9,6.9,4.7,6.9S448.8,29.1,448.8,24.9L448.8,24.9z M445.5,12.8h-3.8l2.6-3.9h5.1
				L445.5,12.8z"/>
			<path class="st0" d="M457.6,14.4h4.9l5.5,10.5l2.1,4.7h0.1c-0.2-2.2-0.6-5.2-0.6-7.7v-7.5h4.5v21.1h-4.9L463.8,25l-2.1-4.6h-0.1
				c0.2,2.3,0.6,5.2,0.6,7.6v7.5h-4.6L457.6,14.4L457.6,14.4z"/>
			<path class="st0" d="M485.9,14.4h7.2c4.4,0,7.8,1.2,7.8,5.3c0,2.2-1.5,4.1-3.6,4.6v0.1c3,0.5,4.6,2.1,4.6,5
				c0,4.3-3.6,6.2-8.2,6.2h-7.9L485.9,14.4L485.9,14.4z M492.9,22.9c2.3,0,3.4-1,3.4-2.6s-1.1-2.2-3.3-2.2h-2.3v4.8H492.9
				L492.9,22.9z M493.4,31.8c2.6,0,4-1,4-2.9s-1.3-2.7-4-2.7h-2.7v5.5L493.4,31.8L493.4,31.8z"/>
			<path class="st0" d="M516.1,30.5h-6.5l-1.3,5h-4.9l6.6-21.1h5.7l6.7,21.1h-5.1L516.1,30.5z M515.1,26.8l-0.5-2
				c-0.6-2.1-1.1-4.6-1.7-6.8h-0.1c-0.5,2.2-1.1,4.7-1.6,6.8l-0.5,2H515.1z"/>
			<path class="st0" d="M524.7,14.4h7.2c4.4,0,7.8,1.2,7.8,5.3c0,2.2-1.5,4.1-3.6,4.6v0.1c3,0.5,4.6,2.1,4.6,5
				c0,4.3-3.6,6.2-8.2,6.2h-7.8V14.4z M531.7,22.9c2.3,0,3.4-1,3.4-2.6s-1.1-2.2-3.3-2.2h-2.3v4.8H531.7z M532.2,31.8
				c2.6,0,4-1,4-2.9s-1.3-2.7-4-2.7h-2.7v5.5L532.2,31.8L532.2,31.8z"/>
			<path class="st0" d="M544.3,14.4h13.3v4h-8.5v4.2h7.2v4h-7.2v4.9h8.8v4h-13.6V14.4z"/>
			<path class="st0" d="M562,14.4h4.8v17.1h8.3v4H562V14.4z"/>
			<path class="st0" d="M308.5,53.7h6.1c5,0,7.9,1.6,7.9,6.2c0,4.3-3,6.5-7.9,6.5h-4.5v9.5h-1.5V53.7z M314.2,65.1
				c4.5,0,6.7-1.5,6.7-5.2s-2.2-4.9-6.7-4.9h-4.1v10L314.2,65.1L314.2,65.1z"/>
			<path class="st0" d="M326.8,59.8h1.5v10.2c0,3.4,1.1,5,3.7,5c1.9,0,3.3-1,5.2-3.3V59.8h1.5v16.2h-1.2l-0.2-2.7h-0.1
				c-1.6,1.8-3.3,3.1-5.5,3.1c-3.3,0-4.9-2-4.9-6.2L326.8,59.8L326.8,59.8z"/>
			<path class="st0" d="M344.8,59.8h1.3l0.1,2.5h0.1c1.6-1.7,3.3-2.9,5.6-2.9c3.3,0,4.9,2,4.9,6.2v10.4h-1.5V65.8c0-3.4-1.1-5-3.7-5
				c-1.9,0-3.3,1-5.3,3v12.2h-1.5L344.8,59.8L344.8,59.8z"/>
			<path class="st0" d="M363.1,61h-2.5v-1.1l2.6-0.1l0.2-4.7h1.3v4.7h4.7V61h-4.7v10.6c0,2.1,0.5,3.4,2.7,3.4c0.7,0,1.4-0.2,2-0.5
				l0.4,1.2c-0.8,0.3-1.7,0.5-2.6,0.6c-3.1,0-4-2-4-4.9L363.1,61L363.1,61z"/>
			<path class="st0" d="M378.8,59.3c3.9,0,7.3,3.1,7.3,8.5s-3.4,8.4-7.3,8.4s-7.2-3.1-7.2-8.4S374.9,59.3,378.8,59.3z M378.8,75
				c3.3,0,5.7-2.9,5.7-7.1s-2.5-7.2-5.7-7.2s-5.7,2.9-5.7,7.2S375.5,75,378.8,75L378.8,75z"/>
			<path class="st0" d="M403.4,59.3c1.8,0.1,3.6,0.8,4.9,2l-0.1-3v-6.6h1.5v24.2h-1.3l-0.1-2.1h-0.1c-1.3,1.5-3.2,2.4-5.2,2.5
				c-4.1,0-6.7-3-6.7-8.4C396.3,62.7,399.6,59.3,403.4,59.3z M403.2,75c1.8,0,3.4-0.9,5.1-2.7v-9.6c-1.2-1.3-2.9-2-4.7-2.1
				c-3.2,0-5.7,3.1-5.7,7.2C397.9,72.1,399.7,75,403.2,75z"/>
			<path class="st0" d="M420.9,59.3c3.8,0,6.2,2.7,6.2,7.5c0,0.4,0,0.8-0.1,1.2h-11.6c0.1,4.1,2.5,7,6.1,7c1.6,0,3.1-0.5,4.3-1.4
				l0.6,1.2c-1.5,1-3.3,1.6-5.1,1.6c-4.1,0-7.5-3.2-7.5-8.4S417.3,59.3,420.9,59.3z M425.7,66.9c0-4.1-1.9-6.3-4.8-6.3
				s-5.2,2.4-5.5,6.3H425.7z"/>
			<path class="st0" d="M438.3,53.7h12.1v1.3h-10.6v8.4h8.9v1.3h-8.9v9.8h10.9v1.3h-12.5V53.7z"/>
			<path class="st0" d="M455.3,59.8h1.3l0.1,2.5h0.1c1.6-1.7,3.3-2.9,5.6-2.9c3.3,0,4.9,2,4.9,6.2v10.4h-1.5V65.8c0-3.4-1.1-5-3.7-5
				c-1.9,0-3.3,1-5.3,3v12.2h-1.5L455.3,59.8L455.3,59.8z"/>
			<path class="st0" d="M479.2,59.3c1.8,0,3.5,0.7,4.8,2l-0.9,1c-1-1.1-2.4-1.7-3.8-1.7c-3.3,0-5.9,2.9-5.9,7.2s2.3,7.2,5.9,7.2
				c1.6-0.1,3.2-0.7,4.3-1.8l0.8,1c-1.4,1.3-3.2,2.1-5.1,2.2c-4.2,0-7.3-3.1-7.3-8.4S475.3,59.3,479.2,59.3z"/>
			<path class="st0" d="M488.1,59.8h1.5v10.2c0,3.4,1.1,5,3.7,5c1.9,0,3.3-1,5.2-3.3V59.8h1.5v16.2h-1.2l-0.2-2.7h-0.1
				c-1.6,1.8-3.3,3.1-5.5,3.1c-3.3,0-4.9-2-4.9-6.2L488.1,59.8L488.1,59.8z"/>
			<path class="st0" d="M511.8,59.3c3.8,0,6.2,2.7,6.2,7.5c0,0.4,0,0.8-0.1,1.2h-11.6c0.1,4.1,2.5,7,6.1,7c1.6,0,3.1-0.5,4.3-1.4
				l0.6,1.2c-1.5,1-3.3,1.6-5.1,1.6c-4.1,0-7.5-3.2-7.5-8.4S508.2,59.3,511.8,59.3z M516.6,66.9c0-4.1-1.8-6.3-4.8-6.3
				s-5.2,2.4-5.6,6.3H516.6L516.6,66.9z"/>
			<path class="st0" d="M522.4,59.8h1.3l0.1,2.5h0.1c1.7-1.7,3.3-2.9,5.6-2.9c3.3,0,4.9,2,4.9,6.2v10.4h-1.5V65.8c0-3.4-1.1-5-3.7-5
				c-1.9,0-3.3,1-5.3,3v12.2h-1.5L522.4,59.8L522.4,59.8z"/>
			<path class="st0" d="M540.6,61h-2.5v-1.1l2.6-0.1l0.2-4.7h1.3v4.7h4.7V61h-4.7v10.6c0,2.1,0.5,3.4,2.7,3.4c0.7,0,1.4-0.2,2-0.5
				l0.4,1.2c-0.8,0.3-1.7,0.5-2.6,0.6c-3.1,0-4-2-4-4.9L540.6,61L540.6,61z"/>
			<path class="st0" d="M550.8,59.8h1.2l0.1,3h0.1c1.1-2,2.7-3.4,4.6-3.4c0.6,0,1.1,0.1,1.6,0.3l-0.3,1.3c-0.5-0.2-1-0.3-1.5-0.3
				c-1.5,0-3.2,1.1-4.4,4.1v11h-1.5L550.8,59.8L550.8,59.8z"/>
			<path class="st0" d="M567,59.3c3.9,0,7.3,3.1,7.3,8.5s-3.4,8.4-7.3,8.4s-7.2-3.1-7.2-8.4S563.1,59.3,567,59.3z M567,75
				c3.3,0,5.7-2.9,5.7-7.1s-2.5-7.2-5.7-7.2s-5.7,2.9-5.7,7.2S563.7,75,567,75z"/>
		</g>
		<path class="st0" d="M293.3,76.6v-65c0-0.2,0.2-0.5,0.4-0.5h1.1c0.2,0,0.4,0.2,0.4,0.5v65c0,0.2-0.2,0.5-0.4,0.5h-1.1
			C293.5,77.1,293.3,76.9,293.3,76.6z"/>
	</g>
	<g>
		<path d="M215.1,76.7h-36.7c-1,0-1.8-0.8-1.7-1.8c0,0,0,0,0,0V13.3c0-1,0.8-1.8,1.7-1.8c0,0,0,0,0,0h36.7c1,0,1.8,0.8,1.7,1.8
			c0,0,0,0,0,0v5.4c0,1-0.8,1.8-1.7,1.8c0,0,0,0,0,0H187v17.8h26.5c1,0,1.8,0.8,1.7,1.8c0,0,0,0,0,0v5.4c0,1-0.8,1.8-1.7,1.8
			c0,0,0,0,0,0H187v20.5l28.1-0.1c1,0,1.8,0.8,1.7,1.8c0,0,0,0,0,0v5.4C216.8,75.9,216.1,76.7,215.1,76.7z"/>
		<path d="M55.3,76.7"/>
		<path d="M230.2,74.9V13.3c0-1,0.8-1.8,1.8-1.8h6.9c1,0,1.8,0.8,1.8,1.8c0,0,0,0,0,0v52.4c0,1,0.8,1.8,1.8,1.8c0,0,0,0,0,0h26
			c1,0,1.8,0.8,1.8,1.8c0,0,0,0,0,0v5.5c0,1-0.8,1.8-1.8,1.8c0,0,0,0,0,0H232C231,76.7,230.2,75.9,230.2,74.9z"/>
		<path class="st0" d="M54.9,48.6L73.2,2.5C73.7,1,75.2,0,76.7,0h9.5c1.7,0,3.2,1,3.8,2.5l18.8,46.1c0.8,2-0.2,4.3-2.3,5
			c-0.4,0.2-0.9,0.2-1.3,0.3H58.5c-2.2-0.1-3.9-1.9-3.8-4C54.7,49.5,54.7,49,54.9,48.6z"/>
		<path d="M42.6,47.9c-2.1-2.5-5.3-4.2-9.8-5.1v-0.4c3.3-0.5,6.2-2.2,8.2-4.8c2-2.8,3-6.1,2.8-9.5c0-5.6-1.9-9.8-5.8-12.4
			s-10.2-3.9-18.9-3.9H1.8c-1,0-1.9,0.9-1.8,1.9c0,0,0,0,0,0v61.4c0,1,0.8,1.9,1.8,1.9c0,0,0,0,0,0h21.4c7.1,0,12.6-1.7,16.5-5
			s5.9-7.9,5.9-13.8C45.7,53.9,44.7,50.4,42.6,47.9z M10.6,20.9h9.1c4.5,0,7.8,0.7,9.9,2s3.1,3.5,3.1,6.5c0,3.3-1,5.6-2.9,7
			c-1.9,1.4-5,2.1-9.2,2.1H10.6V20.9L10.6,20.9z M31.3,65.2c-2.1,1.7-5.3,2.5-9.5,2.5H10.6V47.6h10.6c4.5,0,7.8,0.8,10,2.4
			s3.3,4,3.3,7.3C34.5,60.9,33.4,63.6,31.3,65.2L31.3,65.2z"/>
		<path d="M161.1,47.7c-2.1-2.5-5.4-4.2-9.8-5.1v-0.5c3.3-0.5,6.2-2.2,8.2-4.8c2-2.8,3-6.1,2.9-9.5c0-5.6-1.9-9.8-5.8-12.4
			c-3.9-2.6-10.2-3.9-18.9-3.9h-16.9c-1,0-1.9,0.9-1.8,1.9c0,0,0,0,0,0v61.4c0,1,0.8,1.9,1.8,1.9c0,0,0,0,0,0h21
			c7.1,0,12.6-1.7,16.5-5c4-3.3,5.9-7.9,5.9-13.7C164.3,53.6,163.2,50.2,161.1,47.7z M129.6,20.7h8.7c4.5,0,7.8,0.7,9.9,2
			c2.1,1.3,3.1,3.5,3.1,6.5c0,3.3-1,5.6-2.9,7s-5,2.1-9.2,2.1h-9.6V20.7L129.6,20.7z M149.9,65c-2.1,1.7-5.3,2.5-9.5,2.5h-10.7V47.4
			h10.2c4.5,0,7.8,0.8,10,2.4s3.3,4,3.3,7.3C153.1,60.7,152,63.3,149.9,65z"/>
	</g>
</g>
</svg>
