<svg id="twitter" xmlns="http://www.w3.org/2000/svg" viewBox="0 0 74.62 74.62">
  <title>iconos y logo</title>
  <g id="Page-1">
    <path id="Twitter-2" data-name="Twitter" d="M37.31,0A37.31,37.31,0,1,0,74.62,37.31,37.31,37.31,0,0,0,37.31,0Zm11.1,17.34a11.43,11.43,0,0,1,5,2.3l0.79,0.75,1.55-.4a23.06,23.06,0,0,0,3-1,5,5,0,0,1,1.55-.53c0.27,0.27-1.29,2.48-2.65,3.72L56.13,23.5l1.28-.18a17.22,17.22,0,0,0,2.74-.66c0.84-.29,1.41-0.38,1.41-0.22a17.27,17.27,0,0,1-2.25,2.48L57.1,27.13l-0.18,2.53a29.6,29.6,0,0,1-8.61,19.5A26.78,26.78,0,0,1,33.8,57a38.58,38.58,0,0,1-9.45.35,31.86,31.86,0,0,1-8.83-2.7l-2.47-1.2,2.6-.18a19.8,19.8,0,0,0,7.72-1.86c1.83-.85,4.25-2.34,4.06-2.53a8.28,8.28,0,0,0-1.59-.4,10.24,10.24,0,0,1-7.06-5.14L18.13,42l2-.13c2-.13,2.77-0.36,1.9-0.62a11.47,11.47,0,0,1-6.49-5.36,15.89,15.89,0,0,1-1.19-4.34,1.18,1.18,0,0,1,.53.22,16.41,16.41,0,0,0,4,.89,9.48,9.48,0,0,0-1.32-1.51,13.58,13.58,0,0,1-2.07-2.88c-0.65-1.33-.7-1.71-0.71-4.12a9.78,9.78,0,0,1,.49-3.9L15.75,19l1,1.15a29.5,29.5,0,0,0,18.8,9.44L37,29.75l-0.09-2a9.31,9.31,0,0,1,1.59-6A10.32,10.32,0,0,1,47,17.16,8.22,8.22,0,0,1,48.41,17.34Z"/>
  </g>
</svg>
